<svg id="图层_1" data-name="图层 1" xmlns="http://www.w3.org/2000/svg" xmlns:xlink="http://www.w3.org/1999/xlink" viewBox="0 0 700.7 782.92"><defs><style>.cls-1,.cls-2,.cls-3,.cls-4,.cls-6{fill-rule:evenodd;}.cls-1{fill:url(#radial-gradient);}.cls-2,.cls-5{fill:#fff;}.cls-3{fill:none;}.cls-4{fill:#174a79;}.cls-6{fill:#5597b1;}</style><radialGradient id="radial-gradient" cx="509.62" cy="531.95" r="353.93" gradientUnits="userSpaceOnUse"><stop offset="0" stop-color="#1a619c"/><stop offset="1" stop-color="#162c56"/></radialGradient></defs><title>epi</title><path class="cls-1" d="M511.07,159c23.22-.81,342.1-9.46,331.75,122.71,0,0-3.13,54.25-8.64,115.58-2.87,31.92-28,245.26-54.24,306.81-39,91.31-134.7,172-270.2,201.11h-.13c-135.54-29.08-231.29-109.75-270.28-201C213,642.71,187.95,429.46,185.08,397.56c-5.52-61.3-8.65-115.52-8.65-115.52-10.25-130.76,302.17-123.62,331-122.68A21.51,21.51,0,0,0,511.07,159Z" transform="translate(-159.17 -140.49)"/><path class="cls-2" d="M755,611c-1,6.06,1.12,9.63.95,15.71a28.44,28.44,0,0,1-.95,4.7c-2.76,7.44-6.52,12.41-10.16,17.11-11.21,14.49-23.94,10.57-27.35,26.58,0,.52-.24.81.78.78,20.91-2.64,25.4-12.23,35.95-19.54-.08,0,1.56-.92,1.57.78-.07,21.51-19.71,42.12-35.17,48.46-5,2.06-13.09,1.16-17.19,3.13-4.68,1.74-5.12,7.25-8.59,10.16v2.34c12.29-3.41,20.76-10.53,37.51-10.16a4.81,4.81,0,0,1,3.91,3.13c-2.85,9.4-17.13,30.06-26.57,32.83-9.62,1-15.5.77-24.23.78-9.06,1.83-20.66,10-22.66,11.72,27.4-7.21,32.6,2.24,32.82,3.13a2.31,2.31,0,0,1,0,2.34c-16.61,1.62-23.76,16.35-36.73,21.89-7.75,3.31-18.4-.38-25.79.78-8.27,1.3-15.68,3.67-25.79,5.47,3.09,1.9,8.65.14,13.28.78,10.92,1.52,24.85,3.93,28.91,14.07a1.32,1.32,0,0,1-.78,1.56c-3.09,2-9.54.34-13.29,1.56-13.2,4.32-22.06,9.87-33.6,7.82-4.91-.87-10.29-3.22-14.85-4.69a73.13,73.13,0,0,0-13.28-3.13c-4.85-.06-11.24-.45-14.85.78,5.64,2.74,17.19,3.74,22.66,6.25,9.6,4.42,18.65,6.85,25,14.07-9.92,10.24-32.79,15.47-48.45,8.6-4.09-1.8-8.72-5.88-12.5-8.6-4.72-3.39-11.58-13.14-25.79-9.38-1.81.58-2.79.9-3.13,2.34,5,7.65,24.38,16.51,32,23.45.19,2-.17,2.65-.78,3.13-4.9,3.85-16.88-8.47-24.23-13.29-3.82-2.51-8.37-5.91-11.72-7.82-1.74-1-2.78-1.2-4.69,0-3.34,1.9-7.9,5.31-11.72,7.81-7.34,4.81-19.32,17.13-24.23,13.28-.61-.47-1-1.1-.78-3.12,7.66-6.94,27.07-15.8,32-23.45-.34-1.45-1.31-1.76-3.12-2.34-14.21-3.76-21.07,6-25.79,9.38-3.78,2.72-8.41,6.8-12.5,8.6-15.66,6.87-38.53,1.64-48.45-8.6,6.36-7.21,15.41-9.65,25-14.07,5.47-2.51,17-3.51,22.66-6.25-3.6-1.23-10-.84-14.85-.78a73,73,0,0,0-13.28,3.13c-4.56,1.47-9.94,3.82-14.85,4.69-11.55,2.06-20.4-3.5-33.6-7.82-3.75-1.22-10.2.4-13.29-1.56a1.32,1.32,0,0,1-.78-1.56c4.06-10.14,18-12.55,28.91-14.07,4.64-.65,10.2,1.11,13.29-.78-10.11-1.8-17.52-4.18-25.79-5.47-7.38-1.16-18,2.52-25.79-.78-13-5.54-20.11-20.26-36.73-21.88a2.31,2.31,0,0,1,0-2.34c.22-.88,5.42-10.34,32.82-3.13-2-1.76-13.6-9.89-22.66-11.72-8.73,0-14.6.22-24.23-.78-9.44-2.77-23.72-23.42-26.57-32.82a4.81,4.81,0,0,1,3.91-3.13c16.75-.37,25.22,6.75,37.51,10.16v-2.35c-3.48-2.91-3.92-8.42-8.6-10.16-4.1-2-12.17-1.07-17.19-3.13-15.46-6.34-35.1-26.95-35.16-48.45,0-1.7,1.65-.78,1.56-.78,10.55,7.31,15,16.9,35.95,19.54,1,0,.77-.26.78-.78-3.42-16-16.14-12.08-27.35-26.57-3.63-4.7-7.4-9.67-10.16-17.11a28.32,28.32,0,0,1-.95-4.7c-.17-6.08,2-9.65.95-15.71-1.48-6-3.83-10.52-3.91-18.76,2.58.09,4.75.42,6.25,1.57,12.91,4.25,15.6,20.19,21.88,31.26H290v-4.69c-13-21.26-11.94-59.16,8.59-65.64.68.52.81.91,1.56,1.56,4.72,4.08,9.25,12.94,6.25,23.45-3.88,13.61-13.3,22.31-12.5,39.85h.78c.39,0,.78-.52.78-.78-.37-2.94.66-10.06,3.12-14.07a39.79,39.79,0,0,1,17.19-15.63c2.09-1,2.5.2,2.34.78-4.41,12.1,2.9,19.45,0,30.48-4.21,16-21.77,31-14.85,48.45a2.06,2.06,0,0,0,2.34.78c5.21-3.64,3.1-6.64,3.91-16.41.53-6.38,3.59-11.4,10.16-15.63,9,6.39,8.42,27.95,6.25,37.51-1.76,7.73-6.18,18.28-3.91,31.26,1.36,7.75,5.61,12.31,10.16,17.19h1.56v-.78c-13.13-19.55-.56-37.65,2.34-34.39.88,2.6,1.59,5.41,3.12,7.81,12.45,12.61,13.77,16.67,13.29,15.63,1.77,3.78,4.32,10.33,4.69,23.44.06,2-1.8,8.58-.78,11.72,1.83,5.66,7.22,9.38,10.94,13.28H369V745.4l-6.25-18h3.12c5.94,4.86,12.91,6,17.19,12.5,10.2,15.54,7.18,42.9,28.13,47.67v-3.91c-.76-3.57-3.56-6.85-5.47-10.16-2.39-4.15-6.52-7.13-7.82-12.5,33.6-3.67,34.53,43,60.17,45.32,1.63-.2,1.46-1.41.78-2.34-3.39-2.62-7.47-12-6.25-16.41,14.25,8.21,27.9,9,43,17.19,5.93,3.21,10.62,11.4,13.28,14.07a1.38,1.38,0,0,0,1.57,0c2.67-2.66,7.35-10.85,13.28-14.07,15.08-8.17,28.73-9,43-17.2,1.21,4.41-2.86,13.8-6.25,16.42-.68.94-.85,2.15.78,2.34,25.64-2.28,26.57-49,60.17-45.33-1.29,5.38-5.43,8.36-7.82,12.51-1.91,3.31-4.71,6.59-5.47,10.16v3.91C629,782.87,626,755.51,636.22,740c4.29-6.53,11.25-7.64,17.19-12.5h3.13l-6.25,18v14.85h1.56c3.73-3.91,9.11-7.63,10.94-13.29,1-3.15-.84-9.72-.78-11.72.37-13.12,2.92-19.67,4.69-23.45-.49,1,.83-3,13.28-15.63,1.53-2.4,2.25-5.21,3.13-7.81,2.91-3.26,15.48,14.83,2.34,34.39v.78H687c4.55-4.88,8.8-9.45,10.16-17.2,2.27-13-2.15-23.53-3.91-31.26-2.17-9.57-2.72-31.13,6.25-37.52,6.57,4.24,9.63,9.26,10.16,15.63.8,9.77-1.3,12.77,3.91,16.41a2.06,2.06,0,0,0,2.34-.78c6.92-17.47-10.64-32.45-14.85-48.46-2.9-11,4.41-18.38,0-30.48-.15-.59.26-1.76,2.34-.78a39.81,39.81,0,0,1,17.19,15.63c2.47,4,3.49,11.13,3.12,14.07,0,.26.39.82.78.78h.78c.8-17.54-8.62-26.24-12.5-39.86-3-10.5,1.53-19.36,6.25-23.45.76-.65.88-1,1.56-1.56,20.53,6.48,21.6,44.39,8.6,65.66v4.69h1.56c6.28-11.06,9-27,21.88-31.26,1.5-1.14,3.67-1.48,6.25-1.56C758.83,600.48,756.48,605,755,611ZM552,734.33c-10.28,8-20.15,14.28-33.68,19.52a40.28,40.28,0,0,1-7.18,2.27c-.53.1-1.48.25-1.95.33l-.28,0a34.08,34.08,0,0,1-8.68-2.49c-13.5-5.25-23.36-11.53-33.61-19.54-81.06-63.34-72.13-152.92-71.89-155.52,6.32-6.62,23-7.32,32.82-21.88A52.08,52.08,0,0,0,433.82,543c.56-2.11.62-6.61.78-9.38,0-.29.68-.55.78-.78.41-.89,24.56-8.7,19.74-7,21.78-7.84,55.74-18.74,53.72-18a2.53,2.53,0,0,1,.8,0,19.71,19.71,0,0,1,2,.63c7.4,2.36,33.86,10.94,52,17.44-4.83-1.73,19.37,6.07,19.78,7,.11.23.77.5.78.78.17,2.77.23,7.26.78,9.37a52,52,0,0,0,6.26,14.06c9.87,14.55,26.56,15.24,32.9,21.86C624.32,581.53,633.26,671,552,734.33ZM394.75,578.95h0C394.76,578.86,394.76,578.87,394.75,578.95Zm229.33,0h0C624.07,578.84,624.07,578.84,624.08,578.93Z" transform="translate(-159.17 -140.49)"/><path class="cls-3" d="M553.75,580.66a5.75,5.75,0,0,1-5.58,5.56v0H534.63V575.08h11.95l1.59,0A5.75,5.75,0,0,1,553.75,580.66Z" transform="translate(-159.17 -140.49)"/><path class="cls-4" d="M571.06,603.33V566.81H585v36.52Zm-98.15,25.41,17,19.06,20-29.38,20.14,29.38,16.23-19.06,20.87,34.14H452.82ZM532.8,589H517v14.27H503V566.58H532.8s16.79-.24,17.39,11.35C550.51,584.06,542.4,589,532.8,589Zm-2.7-16.65-1.55,0H517v11.11H530.1a5.54,5.54,0,0,0,0-11.08Zm-95.83-5.81h44.82v6.58H449v7.94h27.82v6.35H449V597h30.14v6.32H434.27Zm63.37,108.21H454.36v-5.56h43.28Zm68-5.56v5.56H522.37v-5.56Zm0,15.08H454.36v-5.56H565.65ZM503,697h-37.6s-3.6-.95-5.67-5.56H503Zm50.75,0H516.19v-5.56h43.28C557.39,696.07,553.79,697,553.79,697Z" transform="translate(-159.17 -140.49)"/><path class="cls-5" d="M361.06,405.07Q371.68,423,379.3,437.73l-12.12,6.51q-7.42-14.88-15.93-31.11v52.05H337.72V419.55A159.9,159.9,0,0,1,321.58,444q-2.81-2.5-5.16-4.51-.5,4.21-.75,12.12l-34.57,5.41-1.5-13.63L292.13,442V419.7H281.7V406.37h10.42V386.63h-11V373.31h35.27v13.33H305.45v19.74h10.62V419.7H305.45v20.44l9.82-1.55q-2.76-2.35-4.91-4,19.14-22.54,26.85-48.3H320.08V373h55.61v13.33H351.34q-2.51,8.42-5.71,16.33h5.61v7.62Z" transform="translate(-159.17 -140.49)"/><path class="cls-5" d="M398.45,457.07l-2.61-14.93,9.72-2.76V403.77H397V390h8.52V366.39H419V390h7v13.73h-7v31.61l8.82-2.76q-.2,3.46-.2,7t.2,7.21Q413.68,451.56,398.45,457.07Zm31.76-51.4h58.52v36.47H475v7.41q0,3.71,3.71,3.71a4.52,4.52,0,0,0,3.91-1.58q1.15-1.58,1.7-9.24a80.45,80.45,0,0,0,11.22,4.21,81.28,81.28,0,0,1-1.7,8.74,10.59,10.59,0,0,1-4.88,6.86q-3.73,2.23-10,2.23H474.5q-12.32,0-12.32-11.12V442.14h-6.36q-3.11,17.33-24.2,24.25-3.31-4.61-9.12-11.72,16.33-4.26,19.74-12.52h-12Zm60.92-21.84H474.4l9,2.2q-1.8,2.55-3.86,5.21h14.58v10h-66v-10h12l-3.61-5.31,9.47-2.1H430.41v-10H451.8q-1.35-2.6-3.06-5.51l16.63-2.3q1.15,3.66,2.2,7.82h23.55ZM475.9,415.09H443v4.51H475.9Zm0,17.63v-4.51H443v4.51ZM456,391.24h8a72.16,72.16,0,0,0,4.41-7.41h-18A63.22,63.22,0,0,1,456,391.24Z" transform="translate(-159.17 -140.49)"/><path class="cls-5" d="M511.68,449.36h10V420.1h79.56v29.26h10v12.52h-99.6Zm7.21-78.56h13.83v44.09H518.9Zm16.93,78.56h8.42v-17h-8.42ZM567.9,366l14.33,2.2q-1.16,5.21-2.56,10.22h30.11v12.83H575.31a139.62,139.62,0,0,1-10.62,21.44,107.75,107.75,0,0,0-10.42-6v12h-14v-52.2h14v35.57A108,108,0,0,0,567.9,366Zm-10.62,83.37h8.42v-17h-8.42ZM583.13,393q12.62,9.42,19.84,16l-10,10.52a240.93,240.93,0,0,0-18.84-16.53Zm4,39.28h-8.42v17h8.42Z" transform="translate(-159.17 -140.49)"/><path class="cls-5" d="M655.38,441.74l6.21,9.42-5,2.56q7.36.35,10.92.35,4.61,0,4.61-4.31v-8.22H646.36v-8.17q-5.66,3.86-11.92,7.36-3.4-5.41-7-10.22,6.11-2.75,11.52-5.86-2.3-2.71-4.81-5.46l8-5.81q2.81,2.81,5.36,5.61,2.06-1.45,3.91-3-3-3.31-5.76-6.21l8-5.91q2.55,2.61,5.06,5.36a80,80,0,0,0,5.76-7H650.27a132.82,132.82,0,0,1-16,13.93q-2.71-3.61-7.31-8.92a93.06,93.06,0,0,0,24.75-22l10,3.81q-1.55,2.06-3.16,4h18.09v10.12A98.67,98.67,0,0,1,667,415.49h24a84.81,84.81,0,0,1-14.38-24.35l9.82-4.41q1.2,2.86,2.56,5.51h31.51v9.52q-5.36,6.91-12,14.78a67.46,67.46,0,0,0,19,10.07,94,94,0,0,0-7.41,11.72,101.5,101.5,0,0,1-10.22-6.06v9.27H685.44v12.52a11.59,11.59,0,0,1-2,7.16,8.28,8.28,0,0,1-5.49,3.18q-3.51.57-19.39.58a106.32,106.32,0,0,0-2.5-11q-11.22,5.61-21.44,9.82a52.21,52.21,0,0,0-6.21-10.92A175,175,0,0,0,655.38,441.74Zm27.35-75.65q1.45,4,2.86,8.32h38.93V391H711.69v-6.41h-68v7.21H630.83V374.41h39.23q-1.1-3.46-2.35-6.71Zm-21.24,59.22v-4.16a118.69,118.69,0,0,1-12.22,10.17h59.22a90.71,90.71,0,0,1-13.43-11.37v5.36Zm36.37,17.53q15.23,5.11,28.36,10l-5.91,10.52q-12.72-5.31-28.06-11.12Zm2.71-33.62,6.91-7.77H694.41A80.07,80.07,0,0,0,700.57,409.23Z" transform="translate(-159.17 -140.49)"/><path class="cls-6" d="M511,140.9a22.34,22.34,0,0,1-3.78.33c-30.34-1-358.61-8.48-347.83,128.64,0,0,3.29,56.86,9.09,121.15,3,33.45,29.39,257.07,57,321.59,41,95.71,141.57,180.31,284,210.8h.14C652,892.9,752.6,808.27,793.54,712.52c27.6-64.55,54-288.27,57-321.74,5.8-64.31,9.08-121.2,9.08-121.2C870.49,131,535.44,140.06,511,140.9ZM840.83,283.19s-3.11,53.93-8.61,114.91c-2.86,31.73-27.86,243.84-54,305-38.81,90.78-134.14,171-269.09,200H509C374,874.19,278.64,794,239.82,703.23c-26.17-61.17-51.17-273.18-54-304.9-5.5-61-8.61-114.86-8.61-114.86-10.21-130,300.93-122.9,329.69-122a21.06,21.06,0,0,0,3.58-.32C533.57,160.39,851.15,151.79,840.83,283.19Z" transform="translate(-159.17 -140.49)"/><path class="cls-5" d="M247.83,275.36l-6.66-13.76-5.43,2.63L242.41,278,218.1,289.75,232,318.54l5.18-2.51-1.65-3.41,19.13-9.26,11.37,23.49,5.43-2.63-11.37-23.48,19.38-9.38,1.65,3.41,5.18-2.51-13.94-28.79ZM233.3,308l-7.76-16,19.13-9.26,7.76,16Zm24.56-11.89-7.76-16,19.38-9.38,7.76,16Z" transform="translate(-159.17 -140.49)"/><polygon class="cls-5" points="213.61 128 183.54 135.81 181.19 126.78 175.76 128.2 178.11 137.23 148.1 145.03 149.38 149.91 179.38 142.11 183.88 159.42 189.31 158.01 184.81 140.7 214.88 132.88 213.61 128"/><path class="cls-5" d="M317.22,275.25l5.3-1.38-6.89-26.51a94.38,94.38,0,0,0,4.08-10.81l-5.45-1.19a66.35,66.35,0,0,1-13.81,25.77q2.08,2.14,4,4.4a83.26,83.26,0,0,0,7.47-10.86Z" transform="translate(-159.17 -140.49)"/><path class="cls-5" d="M325.22,263.38q6.42-4.28,12-8.67l1.07,4.11q2.19,8.42,11.22,6.07l10.25-2.66q8.42-2.19,7.77-10-.15-3.37-.69-7.94-2.13-.1-5.83-.66a57.07,57.07,0,0,1,1.1,8.12q.4,4.61-4.76,5.95l-7.2,1.87q-5.63,1.47-6.82-3.08l-1.45-5.57a121.44,121.44,0,0,0,17.89-18.42l-4.66-3.14A87.09,87.09,0,0,1,340.5,245.5l-3.81-14.66-5.3,1.38,4.44,17.07a124.46,124.46,0,0,1-14.92,9.78A41.65,41.65,0,0,1,325.22,263.38Z" transform="translate(-159.17 -140.49)"/><path class="cls-5" d="M420.86,230.15a134.77,134.77,0,0,0-.55-14.37l-6.11.87q4.49,44.13-23.31,65.93a60.51,60.51,0,0,1,5.12,4.66q20.59-16.63,24.14-46.32,13,28.37,35.26,37.11,1.82-3.16,4.28-6.77Q434.4,263.65,420.86,230.15Z" transform="translate(-159.17 -140.49)"/><path class="cls-5" d="M531.08,270.93q-2,4-5.47,1.11-7.08-5.76-10.63-18l23.71,0V249l-25,0a107.23,107.23,0,0,1-1.77-12.63l15.75,0v3.09h5.54l0-25.6-56.18-.08L477,271.13a4.55,4.55,0,0,1-2,3.93l3.08,5.19,2.6-1.33q7.51-3,18.88-6.85a39,39,0,0,1,.08-6.17q-9.13,3.85-17.19,6.36l0-18.31,26.79,0q3.9,15.23,11.61,21.83,4.07,3.58,8.27,3.59,4.63,0,7-6A63.89,63.89,0,0,0,539,261.05a46.62,46.62,0,0,1-5.4-2Q532.77,267.5,531.08,270.93Zm-48.58-22,0-12.63,23.81,0q.69,6.84,1.84,12.63Zm0-17.68,0-12.41,45.17.07,0,12.41Z" transform="translate(-159.17 -140.49)"/><path class="cls-5" d="M609.34,235.21l15.27,1.64.57-5.3-15.28-1.64,1.44-13.46-5.72-.61-1.44,13.46L583.06,227l1.43-13.39-5.72-.61-1.44,13.39-15.2-1.63-.57,5.3,15.21,1.63L574.71,251l-18-1.93-.57,5.3,68.62,7.35.57-5.3-18.06-1.94Zm-7.78,18.63-21.13-2.26,2.06-19.25,21.13,2.26Z" transform="translate(-159.17 -140.49)"/><path class="cls-5" d="M595.63,267q10.81,8.36,20.95,17.84l4.59-4.66q-10.27-8.79-21.51-17.19Z" transform="translate(-159.17 -140.49)"/><path class="cls-5" d="M554,273.15q1.89,2.81,3.18,5.21a262.43,262.43,0,0,0,25.8-13l-3.85-4.93A163.22,163.22,0,0,1,554,273.15Z" transform="translate(-159.17 -140.49)"/><path class="cls-5" d="M662.2,258l-3.05,1.85,2.15-8.79L674,254.21l1.13-4.63-12.74-3.11,2.85-11.65q6.18.43,12.12.65l-.4-5.15a245.71,245.71,0,0,1-28.59-2.08q.29,2.67.35,5.07,5.61.65,11.13,1.13l-2.63,10.77-13-3.18-1.13,4.63L655,249.57a89.38,89.38,0,0,1-17.93,19.88q.71,3.57,1.16,6.49a88.17,88.17,0,0,0,15.55-16.63l-8,32.7,5.18,1.26,7.74-31.68q3.84,6.14,6.78,11.84l4.85-3Q666.45,264,662.2,258Z" transform="translate(-159.17 -140.49)"/><path class="cls-5" d="M667.69,295l5.45,1.33,1.61-6.61,19.21,4.7L692.35,301l5.45,1.33,13.9-56.89-30.11-7.36ZM705,249.15l-9.86,40.33-19.21-4.7,9.86-40.33Z" transform="translate(-159.17 -140.49)"/><path class="cls-5" d="M744.3,249.45l-26.33,60,4.94,2.17,1.44-3.28,46.3,20.33-1.41,3.21,4.94,2.17,26.31-59.92Zm28.36,74.65-46.3-20.33,20.89-47.59,46.3,20.33Z" transform="translate(-159.17 -140.49)"/><path class="cls-5" d="M766.55,306.25l5.06-1.23a96.62,96.62,0,0,0-3-9.52l-4.78,1.12A80.39,80.39,0,0,1,766.55,306.25Z" transform="translate(-159.17 -140.49)"/><polygon class="cls-5" points="625.62 144.97 627.54 140.6 589.26 123.8 587.35 128.17 604.04 135.5 600.26 144.1 584.79 137.31 582.87 141.68 598.35 148.47 592.76 161.19 575.04 153.4 573.12 157.77 613.45 175.48 615.37 171.11 597.52 163.27 603.1 150.56 618.64 157.38 620.56 153.01 605.02 146.19 608.79 137.58 625.62 144.97"/></svg>